<?xml version="1.0" encoding="UTF-8"?>
<svg width="19px" height="19px" viewBox="0 0 19 19" version="1.1" xmlns="http://www.w3.org/2000/svg" xmlns:xlink="http://www.w3.org/1999/xlink">
    <title>0215EA99-662F-4857-B000-B7FD2EC4BB95</title>
    <g id="Page-1" stroke="none" stroke-width="1" fill="none" fill-rule="evenodd">
        <g id="Profile-Athlete" transform="translate(-43.000000, -203.000000)" fill="#000000" fill-rule="nonzero">
            <g id="Shape" transform="translate(43.000000, 203.000000)">
                <path d="M6.56064062,0 L2.19717187,0 C0.985662109,0 0,0.985662109 0,2.19717187 L0,6.56064062 C0,7.77215039 0.985662109,8.7578125 2.19717187,8.7578125 L6.56064062,8.7578125 C7.77215039,8.7578125 8.7578125,7.77215039 8.7578125,6.56064062 L8.7578125,2.19717187 C8.7578125,0.985662109 7.77215039,0 6.56064062,0 Z M7.2734375,6.56064063 C7.2734375,6.95366602 6.95366602,7.2734375 6.56064063,7.2734375 L2.19717187,7.2734375 C1.80414648,7.2734375 1.484375,6.95366602 1.484375,6.56064063 L1.484375,2.19717187 C1.484375,1.80414648 1.80414648,1.484375 2.19717187,1.484375 L6.56064063,1.484375 C6.95366602,1.484375 7.2734375,1.80414648 7.2734375,2.19717187 L7.2734375,6.56064063 Z"></path>
                <path d="M16.7734375,0 L12.46875,0 C11.2410234,0 10.2421875,0.998835937 10.2421875,2.2265625 L10.2421875,6.53125 C10.2421875,7.75897656 11.2410234,8.7578125 12.46875,8.7578125 L16.7734375,8.7578125 C18.0011641,8.7578125 19,7.75897656 19,6.53125 L19,2.2265625 C19,0.998835937 18.0011641,0 16.7734375,0 Z M17.515625,6.53125 C17.515625,6.94049219 17.1826797,7.2734375 16.7734375,7.2734375 L12.46875,7.2734375 C12.0595078,7.2734375 11.7265625,6.94049219 11.7265625,6.53125 L11.7265625,2.2265625 C11.7265625,1.81732031 12.0595078,1.484375 12.46875,1.484375 L16.7734375,1.484375 C17.1826797,1.484375 17.515625,1.81732031 17.515625,2.2265625 L17.515625,6.53125 Z"></path>
                <path d="M6.56064062,10.2421875 L2.19717187,10.2421875 C0.985662109,10.2421875 0,11.2278496 0,12.4393594 L0,16.8028281 C0,18.0143379 0.985662109,19 2.19717187,19 L6.56064062,19 C7.77215039,19 8.7578125,18.0143379 8.7578125,16.8028281 L8.7578125,12.4393594 C8.7578125,11.2278496 7.77215039,10.2421875 6.56064062,10.2421875 Z M7.2734375,16.8028281 C7.2734375,17.1958535 6.95366602,17.515625 6.56064063,17.515625 L2.19717187,17.515625 C1.80414648,17.515625 1.484375,17.1958535 1.484375,16.8028281 L1.484375,12.4393594 C1.484375,12.046334 1.80414648,11.7265625 2.19717187,11.7265625 L6.56064063,11.7265625 C6.95366602,11.7265625 7.2734375,12.046334 7.2734375,12.4393594 L7.2734375,16.8028281 Z"></path>
                <path d="M16.7734375,10.2421875 L12.46875,10.2421875 C11.2410234,10.2421875 10.2421875,11.2410234 10.2421875,12.46875 L10.2421875,16.7734375 C10.2421875,18.0011641 11.2410234,19 12.46875,19 L16.7734375,19 C18.0011641,19 19,18.0011641 19,16.7734375 L19,12.46875 C19,11.2410234 18.0011641,10.2421875 16.7734375,10.2421875 Z M17.515625,16.7734375 C17.515625,17.1826797 17.1826797,17.515625 16.7734375,17.515625 L12.46875,17.515625 C12.0595078,17.515625 11.7265625,17.1826797 11.7265625,16.7734375 L11.7265625,12.46875 C11.7265625,12.0595078 12.0595078,11.7265625 12.46875,11.7265625 L16.7734375,11.7265625 C17.1826797,11.7265625 17.515625,12.0595078 17.515625,12.46875 L17.515625,16.7734375 Z"></path>
            </g>
        </g>
    </g>
</svg>